<svg width="126" height="200" viewBox="0 0 126 200" fill="none" xmlns="http://www.w3.org/2000/svg">
<path fill-rule="evenodd" clip-rule="evenodd" d="M124.05 96.2876C124.05 135.876 96.7053 167.97 62.9736 167.97C29.2424 167.97 1.89746 135.876 1.89746 96.2876C1.89746 56.6978 29.2424 24.6039 62.9736 24.6039C96.7053 24.6039 124.05 56.6978 124.05 96.2876Z" fill="#D33833"/>
<path d="M4.3862 114.041C4.3862 114.041 -0.0353067 39.288 59.9946 37.1519L55.8067 29.1427L23.2327 41.6908L13.9256 53.9714L5.78224 71.8593L1.12842 92.6834L2.52446 106.566" fill="#EF3D3A"/>
<path d="M21.1418 47.387C10.4258 59.9679 3.79466 77.3384 3.79466 96.5551C3.79466 115.768 10.4258 133.14 21.1418 145.719C31.8629 158.298 46.6383 166.059 62.973 166.059C79.3082 166.059 94.0845 158.298 104.805 145.719C115.52 133.14 122.153 115.768 122.153 96.5551C122.153 77.3384 115.52 59.9679 104.805 47.387C94.0845 34.8108 79.3082 27.049 62.973 27.0474C46.6383 27.049 31.8629 34.8108 21.1418 47.387ZM18.4293 148.762C7.0407 135.398 0 116.928 0 96.5551C0 76.1787 7.0407 57.7109 18.4293 44.3459C29.8152 30.9784 45.5763 22.6928 62.973 22.6952C80.3699 22.6928 96.1325 30.9784 107.517 44.3459C118.906 57.7109 125.948 76.1803 125.946 96.5551C125.948 116.928 118.906 135.398 107.517 148.762C96.1325 162.129 80.3699 170.413 62.973 170.413C45.5763 170.413 29.8152 162.129 18.4293 148.762Z" fill="#231F20"/>
<path fill-rule="evenodd" clip-rule="evenodd" d="M88.6836 96.6849L79.3762 98.2867L66.8117 99.8886L58.6678 100.155L50.7573 99.8886L44.7074 97.7525L39.3559 91.0784L35.1677 77.4626L34.2371 74.5256L28.653 72.3904L25.3955 66.2496L23.0688 57.4395L25.6286 49.6969L31.6777 47.2941L36.5638 49.9644L38.891 55.8376L41.6831 55.3034L42.6134 53.969L41.6831 47.8283L41.4499 40.0858L42.846 29.407L42.7914 23.3072L47.0341 15.5246L54.4797 9.38387L67.5097 2.97646L81.9351 5.37923L94.4995 15.7913L100.317 26.47L104.039 34.2126L104.97 53.4348L102.178 69.9876L97.0591 84.671L92.173 92.4135" fill="#F0D6B7"/>
<path fill-rule="evenodd" clip-rule="evenodd" d="M80.7726 142.871L47.4998 144.473V150.88L50.2919 173.306L48.8959 175.176L25.629 166.098L23.9998 162.894L21.6732 132.727L16.3224 114.572L15.1587 110.301L33.7721 95.6172L39.5893 92.9469L44.7078 100.155L49.1285 104.694L54.2477 106.563L56.5741 107.364L59.3662 121.246L61.4602 124.183L66.8121 122.047L63.0888 130.324L83.3315 141.269L80.7726 142.871Z" fill="#335061"/>
<path fill-rule="evenodd" clip-rule="evenodd" d="M25.6289 49.6968L31.6779 47.294L36.5641 49.9643L38.8913 55.8375L41.6833 55.3033L42.3814 52.0996L40.9853 45.9597L42.3814 31.2755L41.2176 23.2663L45.4057 17.6598L54.48 9.38379L51.9205 5.37916L39.1236 12.5875L33.772 17.3931L30.7473 24.8681L26.0938 32.0764L24.6978 40.6199L25.6289 49.6968Z" fill="#6D6B6D"/>
<path fill-rule="evenodd" clip-rule="evenodd" d="M35.1679 24.6014C35.1679 24.6014 38.658 14.7236 52.6184 9.91802C66.5787 5.11246 53.3164 6.4468 53.3164 6.4468L38.1931 13.1217L32.3758 19.7958L29.8169 25.1356L35.1679 24.6014Z" fill="#DCD9D8"/>
<path fill-rule="evenodd" clip-rule="evenodd" d="M28.1878 47.8282C28.1878 47.8282 23.3017 29.1394 41.9156 26.4699L41.2176 23.2662L28.421 26.7374L24.6978 40.6199L25.6289 49.6968L28.1878 47.8282Z" fill="#DCD9D8"/>
<path fill-rule="evenodd" clip-rule="evenodd" d="M35.6333 72.657L38.6798 69.2699C38.6798 69.2699 40.0548 69.4533 40.2871 71.3219C40.5194 73.1912 41.2174 90.0107 51.2223 99.0884C52.1349 99.9165 43.7772 97.7524 43.7772 97.7524L36.3313 84.4042" fill="#F7E4CD"/>
<path fill-rule="evenodd" clip-rule="evenodd" d="M78.4466 67.5847C78.4466 67.5847 78.989 59.4922 80.8883 60.1145C82.7876 60.7368 82.7876 62.9161 82.7876 62.9161C82.7876 62.9161 78.1751 66.3401 78.4466 67.5847Z" fill="#F7E4CD"/>
<path d="M97.7575 37.9505C97.7575 37.9505 93.9225 38.8796 93.5694 42.7561C93.2162 46.6334 97.7575 43.557 98.4555 43.2903" fill="#F7E4CD"/>
<path d="M69.6041 38.2179C69.6041 38.2179 64.4849 39.0189 64.4849 42.756C64.4849 46.4939 70.3023 46.2272 71.9308 44.6254" fill="#F7E4CD"/>
<path fill-rule="evenodd" clip-rule="evenodd" d="M37.9602 55.5708C37.9602 55.5708 29.1182 49.4301 28.1879 55.3041C27.2573 61.1773 25.1627 65.4495 29.584 71.5894L26.5593 70.5217L23.7672 62.2457L22.8369 54.2365L28.1879 47.8283L34.2375 48.3625L37.7276 51.5662L37.9602 55.5708Z" fill="#F7E4CD"/>
<path fill-rule="evenodd" clip-rule="evenodd" d="M42.1481 38.7515C42.1481 38.7515 46.1036 15.2579 66.1138 10.719C82.5879 6.98272 91.242 11.52 94.4996 15.7913C94.4996 15.7913 79.8412 -4.23105 65.8807 1.90885C51.9203 8.04955 41.6832 19.2625 41.9155 26.4701C42.3117 38.7467 42.1481 38.7515 42.1481 38.7515Z" fill="#F7E4CD"/>
<path fill-rule="evenodd" clip-rule="evenodd" d="M96.1291 18.4607C96.1291 18.4607 89.3821 18.194 89.1489 25.1356C89.1489 25.1356 89.1482 26.2032 89.6138 27.2709C89.6138 27.2709 94.9662 20.3292 98.2232 24.0672" fill="#F7E4CD"/>
<path fill-rule="evenodd" clip-rule="evenodd" d="M66.5831 27.9941C66.5831 27.9941 65.4215 17.3394 57.5047 23.5337C52.386 27.5384 52.8517 33.1449 53.7821 34.2125C54.7127 35.2809 54.4596 37.4314 55.168 35.9553C55.8761 34.4792 55.643 29.6736 58.2027 28.3393C60.7622 27.0042 64.958 25.5128 66.5831 27.9941Z" fill="#F7E4CD"/>
<path fill-rule="evenodd" clip-rule="evenodd" d="M44.7078 100.155L22.8369 111.368C22.8369 111.368 31.9111 152.75 27.2573 165.564L23.9998 164.23L23.7672 148.478L17.7185 118.577L15.1587 110.301L37.9602 92.6809L44.7078 100.155Z" fill="#49728B"/>
<path fill-rule="evenodd" clip-rule="evenodd" d="M46.9563 123.043L50.0592 127.387V143.406H46.336C46.336 143.406 45.8711 132.193 45.8711 130.858C45.8711 129.523 46.336 124.717 46.336 124.717" fill="#49728B"/>
<path fill-rule="evenodd" clip-rule="evenodd" d="M47.0342 145.809L36.564 146.342L39.5892 148.745L47.0342 150.08" fill="#49728B"/>
<path fill-rule="evenodd" clip-rule="evenodd" d="M82.8667 143.139L91.4754 142.872L93.5694 167.434L84.7276 168.768L82.8667 143.139Z" fill="#335061"/>
<path fill-rule="evenodd" clip-rule="evenodd" d="M85.1929 143.139L98.2228 142.338C98.2228 142.338 103.574 126.853 103.574 126.052C103.574 125.251 108.227 103.626 108.227 103.626L97.7572 91.0791L95.6631 88.9431L90.079 95.3505V120.179L85.1929 143.139Z" fill="#335061"/>
<path fill-rule="evenodd" clip-rule="evenodd" d="M91.0098 141.27L82.8667 143.139L84.0296 150.614C87.0541 152.216 92.1734 147.944 92.1734 147.944" fill="#49728B"/>
<path fill-rule="evenodd" clip-rule="evenodd" d="M91.2427 94.5495L107.53 108.432L107.995 102.025L95.6632 88.9431L91.2427 94.5495Z" fill="#49728B"/>
<path fill-rule="evenodd" clip-rule="evenodd" d="M55.1088 195.735L50.2916 173.306L47.8957 156.757L47.4995 144.473L69.302 143.141L82.8663 143.139L81.6329 171.174L83.727 192.799L83.4945 196.803L65.8119 198.405L55.1088 195.735Z" fill="white"/>
<path fill-rule="evenodd" clip-rule="evenodd" d="M79.8413 142.872C79.8413 142.872 78.6784 170.638 82.1685 190.393C82.1685 190.393 75.1883 195.466 64.9502 196.801L84.495 196L86.8215 194.398L84.0294 150.614L83.3314 141.269" fill="#DCD9D8"/>
<path fill-rule="evenodd" clip-rule="evenodd" d="M93.9656 165.3L103.04 162.363L120.257 161.296L122.817 152.219L118.163 136.467L112.812 135.666L105.366 138.336L98.2228 142.338L94.4305 141.539L91.4751 142.872" fill="white"/>
<path fill-rule="evenodd" clip-rule="evenodd" d="M93.8013 159.958C93.8013 159.958 99.8503 156.755 100.781 157.022L98.2225 142.338L101.247 141.003C101.247 141.003 103.341 154.886 103.341 156.487C103.341 156.487 116.37 157.288 117.534 157.288C117.534 157.288 120.326 151.148 119.628 144.74L122.188 153.284L122.42 158.089L118.698 164.497L114.509 165.564L107.529 165.298L105.203 161.827L97.0589 163.162L94.4993 164.23" fill="#DCD9D8"/>
<path d="M84.6583 141.006L79.5397 126.055L74.188 117.245C74.188 117.245 75.3509 113.507 76.9801 113.507C78.6092 113.507 82.3318 113.507 82.3318 113.507L87.4503 115.643L86.9855 125.521L84.6583 141.006Z" fill="white"/>
<path fill-rule="evenodd" clip-rule="evenodd" d="M85.6588 135.93C85.6588 135.93 79.1435 121.514 79.1435 119.378C79.1435 119.378 80.3064 116.175 81.9356 116.975C83.5647 117.776 87.0548 119.912 87.0548 119.912V114.839L79.1435 112.97L73.7925 113.771L82.8667 138.333L84.7276 138.6" fill="#DCD9D8"/>
<path d="M57.2032 100.693L50.7574 99.8886L44.7075 97.7525V100.155L47.6635 103.896L56.9703 108.701" fill="white"/>
<path fill-rule="evenodd" clip-rule="evenodd" d="M46.8025 101.493C46.8025 101.493 54.0158 104.964 56.3425 104.163L56.5739 107.364L50.0603 105.765L46.1045 102.561L46.8025 101.493Z" fill="#DCD9D8"/>
<path fill-rule="evenodd" clip-rule="evenodd" d="M93.9405 114.416C89.9926 114.283 86.4257 113.744 83.3027 112.734C83.5149 111.265 83.1178 109.823 83.4368 108.765C84.3072 108.046 85.766 108.057 87.0818 107.888C85.944 107.247 84.3456 106.993 83.0326 107.363C83.0019 106.344 82.6033 105.712 82.3618 104.914C84.5815 104.005 89.8215 98.0455 92.7693 100.019C94.1737 100.958 94.7705 106.319 94.8794 108.926C94.9701 111.089 94.7084 113.27 93.9405 114.416Z" fill="#D33833"/>
<path d="M93.9405 114.416C89.9926 114.283 86.4257 113.744 83.3027 112.734C83.5149 111.265 83.1178 109.823 83.4368 108.765C84.3072 108.046 85.766 108.057 87.0818 107.888C85.944 107.247 84.3456 106.993 83.0326 107.363C83.0019 106.344 82.6033 105.712 82.3618 104.914C84.5815 104.005 89.8215 98.0455 92.7693 100.019C94.1737 100.958 94.7705 106.319 94.8794 108.926C94.9701 111.089 94.7084 113.27 93.9405 114.416Z" stroke="#D33833" stroke-width="2.5"/>
<path fill-rule="evenodd" clip-rule="evenodd" d="M75.0614 107.01C75.0509 107.353 75.0384 107.698 75.0265 108.044C73.7938 108.973 71.8037 108.962 70.451 109.743C72.4452 109.843 74.0151 110.394 75.3734 111.171C75.3434 112.035 75.3148 112.897 75.2855 113.761C73.026 115.535 70.9619 118.179 68.3016 119.843C67.0438 120.63 62.6294 122.656 61.2912 122.298C60.534 122.096 60.4658 121.018 60.1632 120.002C59.5183 117.825 58.0337 114.361 57.9042 111.086C57.7392 106.948 57.3752 100.014 61.2612 100.866C64.3963 101.552 68.0426 103.209 70.4698 104.731C71.9531 105.662 72.811 106.812 75.0614 107.01Z" fill="#D33833"/>
<path d="M75.0614 107.01C75.0509 107.353 75.0384 107.698 75.0265 108.044C73.7938 108.973 71.8037 108.962 70.451 109.743C72.4452 109.843 74.0151 110.394 75.3734 111.171C75.3434 112.035 75.3148 112.897 75.2855 113.761C73.026 115.535 70.9619 118.179 68.3016 119.843C67.0438 120.63 62.6294 122.656 61.2912 122.298C60.534 122.096 60.4658 121.018 60.1632 120.002C59.5183 117.825 58.0337 114.361 57.9042 111.086C57.7392 106.948 57.3752 100.014 61.2612 100.866C64.3963 101.552 68.0426 103.209 70.4698 104.731C71.9531 105.662 72.811 106.812 75.0614 107.01Z" stroke="#D33833" stroke-width="2.5"/>
<path fill-rule="evenodd" clip-rule="evenodd" d="M77.3054 111.947C76.9606 109.693 76.562 109.05 76.7163 107.084C81.9549 103.076 82.9384 113.968 77.3054 111.947Z" fill="#D33833"/>
<path d="M77.3054 111.947C76.9606 109.693 76.562 109.05 76.7163 107.084C81.9549 103.076 82.9384 113.968 77.3054 111.947Z" stroke="#D33833" stroke-width="2.5"/>
<path fill-rule="evenodd" clip-rule="evenodd" d="M84.8905 113.774C84.8905 113.774 83.2613 111.104 84.4249 110.303C85.5885 109.502 86.7521 110.304 87.4501 108.969C88.1481 107.633 87.4501 106.833 87.6825 105.231C87.915 103.629 89.0793 103.361 90.2422 103.095C91.4051 102.828 94.6634 102.294 95.1283 103.629L93.7323 98.8233L90.9402 97.7556L82.0984 103.629L81.6328 106.566V112.439" fill="#EF3D3A"/>
<path fill-rule="evenodd" clip-rule="evenodd" d="M60.4602 122.584C60.1807 118.418 59.8849 114.257 59.5557 110.095C59.0633 103.88 60.8569 104.964 65.5521 104.964C66.2693 104.964 69.9677 105.945 70.2323 106.566C71.5013 109.54 68.1103 108.879 71.6939 111.122C74.7192 113.014 80.0632 109.972 78.841 105.765C78.1569 104.829 75.2769 105.473 74.2445 104.859C72.4269 103.778 70.6092 102.697 68.7914 101.615C66.4787 100.239 61.1336 98.2314 58.6679 100.155C52.4204 105.03 59.0622 117.212 61.291 122.298" fill="#EF3D3A"/>
<path fill-rule="evenodd" clip-rule="evenodd" d="M66.583 27.9941C60.2414 26.2994 57.0903 31.0392 55.168 35.9553C53.4516 35.478 54.1346 32.7997 54.5681 31.4349C55.7032 27.8532 60.2777 23.0852 64.0154 23.7316C65.6238 24.0095 67.8005 25.6971 66.583 27.9941Z" fill="#231F20"/>
<path fill-rule="evenodd" clip-rule="evenodd" d="M97.4818 36.2805C97.5817 36.2853 97.6829 36.2893 97.7827 36.2941C99.2157 39.7101 100.456 43.3287 102.264 46.3442C101.053 49.5807 93.0934 52.4448 93.2163 46.6333C94.9376 45.7699 97.909 46.4571 99.4349 45.3542C98.5526 42.5758 97.2794 40.2107 97.4818 36.2805Z" fill="#231F20"/>
<path fill-rule="evenodd" clip-rule="evenodd" d="M69.8295 36.3694C71.1893 39.2295 71.6318 42.2346 73.5646 44.3963C74.4351 45.3694 76.1278 46.5556 75.2887 49.2619C75.0926 49.9003 73.6596 51.3235 72.8324 51.603C69.8107 52.6266 62.7696 51.8145 65.1541 47.4919C67.653 47.6256 71.012 49.354 72.8799 47.2724C71.4455 44.6414 68.8882 39.4362 69.8295 36.3694Z" fill="#231F20"/>
<path fill-rule="evenodd" clip-rule="evenodd" d="M96.3472 65.4382C91.7975 68.7917 86.7243 72.4383 79.2695 71.5926C77.6766 70.0035 77.0693 66.4674 78.6168 64.1319C79.4223 65.721 78.9163 68.6435 81.1611 69.0833C85.3911 69.9138 90.3142 66.1142 93.3569 64.7863C95.2436 61.1365 93.1943 59.7941 91.4946 57.445C88.015 52.6322 83.3473 46.6669 83.5169 39.4618C84.9234 38.2916 85.0449 41.2479 85.2466 41.7861C87.0636 46.6653 91.6363 52.9053 94.9735 57.0814C95.793 58.1098 97.1422 59.0965 97.2923 59.7765C97.7251 61.754 96.1664 64.1231 96.3472 65.4382Z" fill="#231F20"/>
<path fill-rule="evenodd" clip-rule="evenodd" d="M36.3676 61.9078C34.9416 60.9739 34.6021 56.8603 32.9279 56.7434C30.5353 56.5768 30.9716 62.08 30.9812 65.2981C29.3343 63.5825 29.0446 58.3004 30.2545 55.5877C28.8757 54.8108 28.2599 56.4446 27.4951 57.0205C28.4781 48.827 37.9409 53.2201 36.3676 61.9078Z" fill="#231F20"/>
<path fill-rule="evenodd" clip-rule="evenodd" d="M99.2442 68.8502C97.1264 73.4756 94.1305 78.5695 87.916 78.7177C87.7897 77.2239 87.6927 74.9509 87.923 74.0515C92.6737 73.5277 95.6068 70.7532 99.2442 68.8502Z" fill="#231F20"/>
<path fill-rule="evenodd" clip-rule="evenodd" d="M69.4712 71.8488C73.4348 74.2404 80.7193 74.4975 86.1066 74.3165C86.3956 75.6709 86.3886 77.344 86.3998 78.9955C79.4748 79.392 71.287 77.4257 69.4712 71.8488Z" fill="#231F20"/>
<path fill-rule="evenodd" clip-rule="evenodd" d="M68.7177 76.3084C71.4586 84.2047 80.8791 83.2957 88.8232 83.0778C88.4735 84.103 87.7155 85.314 86.7731 85.7521C84.2275 86.9407 77.2061 87.8425 73.672 85.6888C71.4307 84.3217 69.9907 81.2325 68.7627 79.4216C68.1696 78.547 65.2167 76.3132 68.7177 76.3084Z" fill="#231F20"/>
<path fill-rule="evenodd" clip-rule="evenodd" d="M96.0164 119.865C92.7999 126.186 89.7223 132.678 85.9062 138.254C87.5061 132.856 88.1909 123.822 88.4324 116.935C91.7794 115.138 94.6454 117.34 96.0164 119.865Z" fill="#81B0C4"/>
<path fill-rule="evenodd" clip-rule="evenodd" d="M113.325 142.584C109.724 143.411 107.193 147.427 103.68 147.169C105.611 144.046 108.994 142.729 113.325 142.584Z" fill="#231F20"/>
<path fill-rule="evenodd" clip-rule="evenodd" d="M114.913 149.05C111.978 149.406 108.531 149.951 105.554 149.67C106.963 147.2 112.393 148.052 114.913 149.05Z" fill="#231F20"/>
<path fill-rule="evenodd" clip-rule="evenodd" d="M115.93 154.625C112.631 154.707 108.531 154.632 105.396 154.33C107.25 152.044 113.791 153.482 115.93 154.625Z" fill="#231F20"/>
<path fill-rule="evenodd" clip-rule="evenodd" d="M89.8098 169.882C90.2831 174.636 91.9255 179.452 91.7196 184.658C89.8957 185.364 88.848 185.982 86.4042 185.978C86.2318 181.553 85.716 174.79 85.8702 170.572C87.0722 170.663 88.8445 169.587 89.8098 169.882Z" fill="#DCD9D8"/>
<path fill-rule="evenodd" clip-rule="evenodd" d="M84.4916 99.8236C82.8352 101.064 81.4245 102.613 79.8337 103.938C76.3059 104.138 74.3808 103.658 71.7891 101.333C71.8316 101.147 72.092 101.23 72.1018 101.001C75.8781 102.932 80.6783 100.214 84.4916 99.8236Z" fill="#F0D6B7"/>
<path fill-rule="evenodd" clip-rule="evenodd" d="M64.6675 129.36C65.705 124.201 69.7704 121.53 73.4622 118.689C77.2727 124.238 79.5901 131.374 82.142 138.26C76.1125 136.175 69.9518 132.791 64.6675 129.36Z" fill="#81B0C4"/>
<path fill-rule="evenodd" clip-rule="evenodd" d="M85.8699 170.572C85.7157 174.79 86.2315 181.553 86.4039 185.978C88.8477 185.982 89.8954 185.364 91.7193 184.658C91.9252 179.452 90.2828 174.636 89.8095 169.882C88.8442 169.587 87.0719 170.663 85.8699 170.572ZM47.8181 146.585C49.4295 163.583 51.7635 177.872 56.0443 192.924C65.5452 196.234 76.9988 196.523 85.3967 193.536C83.8547 185.04 84.5283 174.698 83.6272 165.632C82.948 158.818 83.2942 151.962 82.3631 145.009C72.1874 142.58 57.8043 144.442 47.8181 146.585ZM84.7691 145.116C84.6833 152.416 85.0539 159.618 85.5398 166.927C87.9828 166.506 89.6406 166.225 91.9106 165.654C91.1735 158.617 91.2642 150.699 89.7628 144.474C88.0275 144.494 86.4995 144.451 84.7691 145.116ZM97.1625 143.939C96.0031 143.634 94.6531 143.928 93.5453 143.952C94.0661 149.903 95.3295 156.47 95.7741 162.717C97.5171 162.779 98.4482 161.835 99.8819 161.518C99.9587 156.035 99.4645 148.481 97.1625 143.939ZM115.928 163.613C119.561 162.6 121.846 157.494 120.829 152.251C120.148 148.727 118.933 142.091 117.633 139.836C116.673 138.169 114.068 135.986 111.989 137.514C108.606 139.999 102.647 140.72 100.181 143.729C101.418 148.454 101.801 154.945 102.312 160.933C106.538 161.235 111.737 159.598 115.252 161.335C112.798 162.247 109.614 162.254 107.495 163.583C109.227 164.543 113.283 164.349 115.928 163.613ZM82.1418 138.26C79.5898 131.374 77.2724 124.238 73.4619 118.689C69.7702 121.53 65.7048 124.201 64.6673 129.36C69.9516 132.791 76.1123 136.175 82.1418 138.26ZM88.4324 116.935C88.1908 123.822 87.5061 132.856 85.9062 138.254C89.7223 132.678 92.7999 126.186 96.0163 119.865C94.6454 117.34 91.7793 115.138 88.4324 116.935ZM81.3014 114.028C79.8558 113.849 78.6287 115.935 76.7489 115.033C76.3182 115.579 75.9266 116.171 75.4876 116.705C79.6394 122.446 81.5261 130.591 84.7328 137.338C86.4535 130.857 86.2552 123.757 86.6342 116.683C84.2701 116.855 82.9585 114.23 81.3014 114.028ZM76.7161 107.084C76.5618 109.05 76.9604 109.693 77.3052 111.947C82.9382 113.968 81.9547 103.076 76.7161 107.084ZM70.4695 104.731C68.0423 103.209 64.396 101.552 61.2609 100.866C57.3749 100.013 57.7389 106.948 57.9039 111.085C58.0334 114.361 59.518 117.825 60.1629 120.001C60.4655 121.018 60.5337 122.096 61.2909 122.298C62.6291 122.655 67.0435 120.63 68.3013 119.843C70.9616 118.178 73.0257 115.535 75.2852 113.761C75.3145 112.897 75.3431 112.035 75.3731 111.171C74.0148 110.394 72.4449 109.843 70.4507 109.743C71.8034 108.962 73.7935 108.973 75.0262 108.044C75.0381 107.698 75.0506 107.353 75.0611 107.01C72.8107 106.812 71.9528 105.662 70.4695 104.731ZM47.2858 99.8989C45.2713 102.246 52.9359 105.445 55.3763 105.617C55.3627 104.132 56.1138 102.732 55.9625 101.667C53.0641 101.083 49.255 101.468 47.2858 99.8989ZM72.1015 101.001C72.0917 101.23 71.8314 101.147 71.7888 101.333C74.3805 103.658 76.3057 104.138 79.8335 103.938C81.4242 102.613 82.8349 101.064 84.4913 99.8236C80.6781 100.214 75.8778 102.932 72.1015 101.001ZM94.8792 108.926C94.7704 106.319 94.1736 100.958 92.7691 100.019C89.8214 98.0447 84.5814 104.005 82.3617 104.914C82.6032 105.712 83.0018 106.344 83.0325 107.364C84.3455 106.993 85.9439 107.247 87.0817 107.888C85.7659 108.057 84.3071 108.046 83.4366 108.765C83.1176 109.823 83.5148 111.265 83.3026 112.734C86.4255 113.744 89.9924 114.283 93.9404 114.416C94.7082 113.27 94.97 111.089 94.8792 108.926ZM43.8944 102.169C43.2618 101.651 38.9824 95.2623 38.3961 95.5274C30.6525 99.0315 23.4119 105.09 16.9416 110.821C23.1106 126.01 25.6009 144.619 26.0409 162.554C33.1078 166.347 39.315 171.814 48.9046 172.385C47.7949 163.376 46.7819 155.339 46.152 146.857C43.7425 145.692 40.2857 146.91 38.0308 146.496C38.0117 143.378 41.4745 145.13 41.763 143.034C41.9803 141.448 39.8576 141.328 40.5488 138.83C42.3116 139.566 43.2373 141.19 45.1173 141.8C46.8351 137.487 45.0933 129.858 45.3409 126.253C45.3878 125.577 45.6354 122.504 46.9564 123.043C48.1256 123.521 46.8896 131.214 47.0178 134.626C47.1345 137.768 46.687 140.809 47.7962 142.782C57.0627 141.335 66.4791 140.399 76.5053 140.084C74.2996 138.998 71.6792 137.97 68.8063 136.112C67.2489 135.105 62.3396 133.008 61.8902 131.311C61.1731 128.606 63.7716 127.166 64.216 124.847C59.5385 127.774 58.6259 122.041 57.5194 117.98C56.5168 114.301 55.9461 111.553 55.7002 109.432C51.6708 107.227 47.3627 104.995 43.8944 102.169ZM90.7868 96.3003C97.2385 92.7106 98.4015 109.717 95.8725 115.195C96.2634 116.829 97.6078 117.454 98.1564 118.923C94.5561 126.324 90.5571 133.232 86.8834 140.545C89.6162 138.593 93.5195 140.196 96.7353 138.735C97.9107 138.202 98.7616 135.114 99.6516 132.644C102.1 125.848 104.67 117.281 105.813 110.795C106.071 109.318 106.775 106.098 106.617 104.783C106.336 102.428 103.551 100.682 102.135 99.2261C99.526 96.5366 97.8828 94.1699 95.1612 91.655C94.0577 93.5243 91.6893 94.7802 90.7868 96.3003ZM29.1392 30.65C26.0649 34.5313 26.7084 41.8037 27.0806 46.9777C32.6375 42.9666 40.013 47.2948 39.9435 54.1171C42.5965 54.0362 40.9346 50.3151 40.4547 47.918C38.8864 40.0881 43.0969 31.5815 40.6456 24.4212C35.8863 24.8353 31.9763 27.0658 29.1392 30.65ZM51.1364 8.12314C44.1766 10.3866 35.2569 16.1893 32.397 23.3632C34.6115 22.9939 36.1489 21.7124 38.3335 21.5539C39.1591 21.4922 40.2407 21.9511 41.1896 21.6804C43.0805 21.1422 44.6764 16.2774 46.103 14.4673C47.4935 12.6996 49.165 11.9444 50.3088 10.3329C51.0437 9.92603 52.1302 9.95406 52.172 8.68779C51.8534 8.29694 51.5181 7.99899 51.1364 8.12314ZM87.3658 10.252C80.142 5.57538 67.9147 2.05771 60.2305 6.4532C54.0301 10.0005 45.649 15.8697 42.7915 23.3071C45.4608 30.4842 42.0008 37.0606 41.7799 44.3474C41.6627 48.2247 43.3709 51.6094 43.5018 55.8303C42.5884 57.5595 39.7976 57.7726 37.8658 57.654C37.2155 53.9201 36.0771 49.7233 32.7261 49.302C27.9845 48.7069 24.5176 53.2097 24.3022 57.9151C24.0472 63.4487 28.0063 72.6201 33.6177 71.9834C35.7854 71.7375 36.3179 69.2442 38.6797 69.2699C39.9598 72.2005 36.7051 73.1207 36.3703 75.2167C36.283 75.7582 36.6402 77.8742 36.8479 78.8666C37.8672 83.6986 40.1393 89.9522 42.3757 93.6308C45.2141 98.297 50.7906 99.0003 56.79 99.4576C57.8616 96.8089 61.8089 97.0268 64.381 97.7196C61.2985 96.3187 58.4328 92.9228 56.0579 89.9169C53.3299 86.4682 50.5665 82.7687 50.4269 78.2611C55.5821 86.4674 59.8412 93.634 69.2153 97.2438C76.3085 99.9734 84.5925 95.9928 90.0427 91.6013C92.3043 89.776 93.6542 86.8798 95.2618 84.2288C101.277 74.3013 104.083 60.1313 103.466 46.397C103.212 40.7329 103.223 35.0879 101.567 31.2771C99.8359 27.2925 93.9809 23.7276 90.5536 27.3318C89.9184 23.4569 93.4036 21.0605 97.4975 22.4549C94.5784 18.1323 91.5148 12.9383 87.3658 10.252ZM100.824 138.054C106.469 134.834 117.016 129.387 120.555 138.065C121.861 141.264 123.393 146.672 124.07 149.975C125.025 154.633 123.034 164.426 118.86 165.989C115.174 167.37 110.873 167.286 106.433 166.262C105.91 165.763 105.328 164.893 104.921 163.987C101.751 163.846 98.7819 164.182 96.2774 165.677C96.5147 168.368 94.9288 168.799 93.442 169.354C92.3399 174.368 95.6471 180.917 94.8555 185.489C94.2908 188.747 90.7979 189.25 88.2306 189.86C88.1469 191.67 88.343 193.181 88.5182 194.713C87.9312 197.194 85.2982 198.607 82.8035 198.953C74.5955 200.086 62.1329 200.595 54.2379 197.337C52.0348 191.137 50.2992 183.595 48.4642 176.515C40.7642 177.458 34.5366 172.702 28.6656 169.587C26.6329 168.505 23.821 167.91 23.0616 166.053C22.3254 164.256 22.6266 160.811 22.444 157.557C21.9791 149.246 21.581 141.229 19.6682 132.719C18.8094 128.901 17.3124 125.531 16.2681 121.851C15.3029 118.441 13.6165 114.227 13.1767 110.826C12.5245 105.786 16.6607 105.505 19.3056 103.321C23.3942 99.9437 26.6035 98.076 31.0315 95.0276C32.343 94.125 36.298 91.84 36.7479 90.7876C37.6422 88.7011 35.2128 85.7593 34.5633 84.1238C33.5359 81.5377 33.0001 79.3407 32.8529 76.789C29.1384 76.1154 26.3226 73.5788 24.6217 70.7187C21.8081 65.9853 19.8569 57.2279 22.2912 50.5666C22.4821 50.042 23.4342 49.0104 23.5747 48.2047C23.8517 46.6181 23.0533 44.5084 23.0037 42.8209C22.748 34.1628 24.2804 26.703 29.3601 24.092C31.4222 14.6659 38.8029 11.5319 45.7567 6.84726C48.356 5.09644 51.2214 3.97754 54.1806 2.72809C64.7962 -1.7547 81.0836 -0.910522 89.894 6.73512C93.6298 9.97728 99.6013 16.8228 101.737 21.7789C107.379 34.8637 106.978 56.7314 103.032 72.6482C102.502 74.785 101.732 77.9263 100.658 80.4932C99.9092 82.2857 97.5813 85.8723 97.864 87.4549C98.1551 89.0912 103.172 93.4618 104.247 94.652C106.184 96.7961 109.864 99.6418 110.162 102.347C110.483 105.227 109.057 109.166 108.334 111.944C105.919 121.216 103.563 129.787 100.824 138.054Z" fill="#231F20"/>
<path fill-rule="evenodd" clip-rule="evenodd" d="M63.1639 73.8689C63.4701 73.4011 65.1538 72.6907 67.5096 73.9922C67.5096 73.9922 64.7176 74.5264 64.9499 79.8678L63.7864 79.6003C63.7864 79.6003 62.584 74.7571 63.1639 73.8689Z" fill="#F7E4CD"/>
<path fill-rule="evenodd" clip-rule="evenodd" d="M83.5645 119.779C83.5645 120.589 82.9914 121.247 82.2844 121.247C81.578 121.247 81.0049 120.589 81.0049 119.779C81.0049 118.968 81.578 118.31 82.2844 118.31C82.9914 118.31 83.5645 118.968 83.5645 119.779Z" fill="#1D1919"/>
<path fill-rule="evenodd" clip-rule="evenodd" d="M84.8438 126.587C84.8438 127.397 84.2707 128.055 83.5636 128.055C82.8573 128.055 82.2842 127.397 82.2842 126.587C82.2842 125.776 82.8573 125.118 83.5636 125.118C84.2707 125.118 84.8438 125.776 84.8438 126.587Z" fill="#1D1919"/>
</svg>
